<mxfile host="app.diagrams.net" modified="2022-08-05T03:11:47.373Z" agent="5.0 (Windows NT 10.0; Win64; x64) AppleWebKit/537.36 (KHTML, like Gecko) Chrome/104.0.0.0 Safari/537.36" etag="t_8Bt2mOuh_N1tVBFi_U" version="20.2.3" type="github">
  <diagram id="t0edPUyqslWiIYiSJuDu" name="第 1 页">
    <mxGraphModel dx="1422" dy="706" grid="1" gridSize="10" guides="1" tooltips="1" connect="1" arrows="1" fold="1" page="1" pageScale="1" pageWidth="827" pageHeight="1169" math="0" shadow="0">
      <root>
        <mxCell id="0" />
        <mxCell id="1" parent="0" />
        <mxCell id="8uQz145Xqex9sL9PM3ih-11" style="rounded=0;orthogonalLoop=1;jettySize=auto;html=1;exitX=0.5;exitY=0;exitDx=0;exitDy=0;entryX=0.5;entryY=1;entryDx=0;entryDy=0;fontSize=14;startArrow=none;startFill=0;strokeColor=default;endArrow=none;endFill=0;" edge="1" parent="1" source="8uQz145Xqex9sL9PM3ih-1" target="8uQz145Xqex9sL9PM3ih-3">
          <mxGeometry relative="1" as="geometry" />
        </mxCell>
        <mxCell id="8uQz145Xqex9sL9PM3ih-1" value="&lt;font style=&quot;font-size: 14px;&quot;&gt;表格输入&lt;/font&gt;" style="rounded=0;whiteSpace=wrap;html=1;fillColor=#517293;fontColor=#ffffff;strokeColor=#006EAF;" vertex="1" parent="1">
          <mxGeometry x="150" y="500" width="100" height="30" as="geometry" />
        </mxCell>
        <mxCell id="8uQz145Xqex9sL9PM3ih-2" value="原始输入" style="html=1;verticalAlign=bottom;startArrow=oval;startFill=0;endArrow=block;startSize=8;rounded=0;strokeColor=default;" edge="1" parent="1">
          <mxGeometry x="-0.236" y="1" width="60" relative="1" as="geometry">
            <mxPoint x="210" y="480" as="sourcePoint" />
            <mxPoint x="290" y="430" as="targetPoint" />
            <mxPoint as="offset" />
          </mxGeometry>
        </mxCell>
        <mxCell id="8uQz145Xqex9sL9PM3ih-14" style="edgeStyle=none;rounded=0;orthogonalLoop=1;jettySize=auto;html=1;exitX=0.5;exitY=0;exitDx=0;exitDy=0;entryX=0.5;entryY=1;entryDx=0;entryDy=0;fontSize=14;startArrow=none;startFill=0;endArrow=none;endFill=0;strokeColor=default;" edge="1" parent="1" source="8uQz145Xqex9sL9PM3ih-3" target="8uQz145Xqex9sL9PM3ih-4">
          <mxGeometry relative="1" as="geometry" />
        </mxCell>
        <mxCell id="8uQz145Xqex9sL9PM3ih-3" value="&lt;span style=&quot;font-size: 14px;&quot;&gt;数据预处理&lt;/span&gt;" style="rounded=0;whiteSpace=wrap;html=1;fillColor=#517293;fontColor=#ffffff;strokeColor=#006EAF;" vertex="1" parent="1">
          <mxGeometry x="280" y="390" width="100" height="30" as="geometry" />
        </mxCell>
        <mxCell id="8uQz145Xqex9sL9PM3ih-16" style="edgeStyle=none;rounded=0;orthogonalLoop=1;jettySize=auto;html=1;exitX=0.5;exitY=0;exitDx=0;exitDy=0;entryX=0.5;entryY=1;entryDx=0;entryDy=0;fontSize=14;startArrow=none;startFill=0;endArrow=none;endFill=0;strokeColor=default;" edge="1" parent="1" source="8uQz145Xqex9sL9PM3ih-4" target="8uQz145Xqex9sL9PM3ih-5">
          <mxGeometry relative="1" as="geometry" />
        </mxCell>
        <mxCell id="8uQz145Xqex9sL9PM3ih-24" style="edgeStyle=none;rounded=0;orthogonalLoop=1;jettySize=auto;html=1;fontSize=14;startArrow=none;startFill=0;endArrow=none;endFill=0;strokeColor=default;" edge="1" parent="1" source="8uQz145Xqex9sL9PM3ih-4">
          <mxGeometry relative="1" as="geometry">
            <mxPoint x="330" y="280" as="targetPoint" />
          </mxGeometry>
        </mxCell>
        <mxCell id="8uQz145Xqex9sL9PM3ih-4" value="&lt;span style=&quot;font-size: 14px;&quot;&gt;训练数据&lt;/span&gt;" style="rounded=0;whiteSpace=wrap;html=1;fillColor=#517293;fontColor=#ffffff;strokeColor=#006EAF;" vertex="1" parent="1">
          <mxGeometry x="280" y="280" width="100" height="30" as="geometry" />
        </mxCell>
        <mxCell id="8uQz145Xqex9sL9PM3ih-17" style="edgeStyle=none;rounded=0;orthogonalLoop=1;jettySize=auto;html=1;exitX=0.5;exitY=1;exitDx=0;exitDy=0;entryX=0.5;entryY=0;entryDx=0;entryDy=0;fontSize=14;startArrow=none;startFill=0;endArrow=none;endFill=0;strokeColor=default;" edge="1" parent="1" source="8uQz145Xqex9sL9PM3ih-5" target="8uQz145Xqex9sL9PM3ih-10">
          <mxGeometry relative="1" as="geometry" />
        </mxCell>
        <mxCell id="8uQz145Xqex9sL9PM3ih-5" value="&lt;span style=&quot;font-size: 14px;&quot;&gt;得到训练模型&lt;/span&gt;" style="rounded=0;whiteSpace=wrap;html=1;fillColor=#517293;fontColor=#ffffff;strokeColor=#006EAF;" vertex="1" parent="1">
          <mxGeometry x="400" y="180" width="100" height="30" as="geometry" />
        </mxCell>
        <mxCell id="8uQz145Xqex9sL9PM3ih-19" style="edgeStyle=none;rounded=0;orthogonalLoop=1;jettySize=auto;html=1;exitX=0.5;exitY=1;exitDx=0;exitDy=0;entryX=0.5;entryY=0;entryDx=0;entryDy=0;fontSize=14;startArrow=none;startFill=0;endArrow=none;endFill=0;strokeColor=default;" edge="1" parent="1" source="8uQz145Xqex9sL9PM3ih-6" target="8uQz145Xqex9sL9PM3ih-7">
          <mxGeometry relative="1" as="geometry" />
        </mxCell>
        <mxCell id="8uQz145Xqex9sL9PM3ih-6" value="&lt;span style=&quot;font-size: 14px;&quot;&gt;本地模型输入&lt;/span&gt;" style="rounded=0;whiteSpace=wrap;html=1;fillColor=#F56A85;strokeColor=#b85450;" vertex="1" parent="1">
          <mxGeometry x="710" y="280" width="100" height="30" as="geometry" />
        </mxCell>
        <mxCell id="8uQz145Xqex9sL9PM3ih-7" value="&lt;span style=&quot;font-size: 14px;&quot;&gt;结果预测&lt;/span&gt;" style="rounded=0;whiteSpace=wrap;html=1;fillColor=#F56A85;strokeColor=#b85450;" vertex="1" parent="1">
          <mxGeometry x="610" y="384" width="100" height="30" as="geometry" />
        </mxCell>
        <mxCell id="8uQz145Xqex9sL9PM3ih-12" style="edgeStyle=none;rounded=0;orthogonalLoop=1;jettySize=auto;html=1;exitX=0.5;exitY=0;exitDx=0;exitDy=0;entryX=0.5;entryY=1;entryDx=0;entryDy=0;fontSize=14;startArrow=none;startFill=0;endArrow=none;endFill=0;strokeColor=default;" edge="1" parent="1" source="8uQz145Xqex9sL9PM3ih-9" target="8uQz145Xqex9sL9PM3ih-3">
          <mxGeometry relative="1" as="geometry" />
        </mxCell>
        <mxCell id="8uQz145Xqex9sL9PM3ih-9" value="&lt;span style=&quot;font-size: 14px;&quot;&gt;参数保存&lt;/span&gt;" style="rounded=0;whiteSpace=wrap;html=1;fillColor=#30a3c0;strokeColor=#0e8088;" vertex="1" parent="1">
          <mxGeometry x="400" y="500" width="100" height="30" as="geometry" />
        </mxCell>
        <mxCell id="8uQz145Xqex9sL9PM3ih-18" style="edgeStyle=none;rounded=0;orthogonalLoop=1;jettySize=auto;html=1;exitX=0.5;exitY=1;exitDx=0;exitDy=0;entryX=0.5;entryY=0;entryDx=0;entryDy=0;fontSize=14;startArrow=none;startFill=0;endArrow=none;endFill=0;strokeColor=default;" edge="1" parent="1" source="8uQz145Xqex9sL9PM3ih-10" target="8uQz145Xqex9sL9PM3ih-7">
          <mxGeometry relative="1" as="geometry" />
        </mxCell>
        <mxCell id="8uQz145Xqex9sL9PM3ih-10" value="&lt;span style=&quot;font-size: 14px;&quot;&gt;&lt;font color=&quot;#ffffff&quot;&gt;模型保存&lt;/font&gt;&lt;/span&gt;" style="rounded=0;whiteSpace=wrap;html=1;fillColor=#517293;strokeColor=#0e8088;" vertex="1" parent="1">
          <mxGeometry x="512" y="280" width="100" height="30" as="geometry" />
        </mxCell>
        <mxCell id="8uQz145Xqex9sL9PM3ih-20" value="数据保存" style="html=1;verticalAlign=bottom;startArrow=oval;startFill=0;endArrow=block;startSize=8;rounded=0;strokeColor=default;" edge="1" parent="1">
          <mxGeometry x="0.1945" y="2" width="60" relative="1" as="geometry">
            <mxPoint x="360" y="428" as="sourcePoint" />
            <mxPoint x="440" y="480" as="targetPoint" />
            <mxPoint as="offset" />
          </mxGeometry>
        </mxCell>
        <mxCell id="8uQz145Xqex9sL9PM3ih-21" value="数据恢复" style="html=1;verticalAlign=bottom;startArrow=oval;startFill=0;endArrow=block;startSize=8;rounded=0;strokeColor=default;" edge="1" parent="1">
          <mxGeometry x="0.2259" y="16" width="60" relative="1" as="geometry">
            <mxPoint x="410" y="490" as="sourcePoint" />
            <mxPoint x="333" y="436" as="targetPoint" />
            <mxPoint x="-1" as="offset" />
          </mxGeometry>
        </mxCell>
        <mxCell id="8uQz145Xqex9sL9PM3ih-22" value="输入" style="html=1;verticalAlign=bottom;startArrow=oval;startFill=0;endArrow=block;startSize=8;rounded=0;strokeColor=default;" edge="1" parent="1">
          <mxGeometry x="-0.3333" y="15" width="60" relative="1" as="geometry">
            <mxPoint x="315" y="380" as="sourcePoint" />
            <mxPoint x="315" y="320" as="targetPoint" />
            <mxPoint as="offset" />
          </mxGeometry>
        </mxCell>
        <mxCell id="8uQz145Xqex9sL9PM3ih-23" value="导出" style="html=1;verticalAlign=bottom;startArrow=oval;startFill=0;endArrow=block;startSize=8;rounded=0;strokeColor=default;" edge="1" parent="1">
          <mxGeometry x="-0.236" y="1" width="60" relative="1" as="geometry">
            <mxPoint x="335" y="266" as="sourcePoint" />
            <mxPoint x="425" y="216" as="targetPoint" />
            <mxPoint as="offset" />
          </mxGeometry>
        </mxCell>
        <mxCell id="8uQz145Xqex9sL9PM3ih-26" value="输出" style="html=1;verticalAlign=bottom;startArrow=oval;startFill=0;endArrow=block;startSize=8;rounded=0;strokeColor=default;" edge="1" parent="1">
          <mxGeometry x="0.1236" y="10" width="60" relative="1" as="geometry">
            <mxPoint x="480" y="220" as="sourcePoint" />
            <mxPoint x="560" y="270" as="targetPoint" />
            <mxPoint as="offset" />
          </mxGeometry>
        </mxCell>
        <mxCell id="8uQz145Xqex9sL9PM3ih-27" value="" style="rounded=0;whiteSpace=wrap;html=1;fontSize=14;rotation=45;" vertex="1" parent="1">
          <mxGeometry x="655" y="379" width="10" height="10" as="geometry" />
        </mxCell>
        <mxCell id="8uQz145Xqex9sL9PM3ih-33" value="模型输入" style="html=1;verticalAlign=bottom;startArrow=oval;startFill=0;endArrow=block;startSize=8;rounded=0;strokeColor=default;" edge="1" parent="1">
          <mxGeometry x="-0.0365" y="-14" width="60" relative="1" as="geometry">
            <mxPoint x="560" y="320" as="sourcePoint" />
            <mxPoint x="640" y="379" as="targetPoint" />
            <mxPoint as="offset" />
          </mxGeometry>
        </mxCell>
        <mxCell id="8uQz145Xqex9sL9PM3ih-34" value="模型输入" style="html=1;verticalAlign=bottom;startArrow=oval;startFill=0;endArrow=block;startSize=8;rounded=0;strokeColor=default;" edge="1" parent="1">
          <mxGeometry x="-0.2073" y="19" width="60" relative="1" as="geometry">
            <mxPoint x="760" y="319" as="sourcePoint" />
            <mxPoint x="680" y="379" as="targetPoint" />
            <mxPoint as="offset" />
          </mxGeometry>
        </mxCell>
        <mxCell id="8uQz145Xqex9sL9PM3ih-36" style="edgeStyle=none;rounded=0;orthogonalLoop=1;jettySize=auto;html=1;exitX=0.5;exitY=0;exitDx=0;exitDy=0;fontSize=14;fontColor=#FFFFFF;startArrow=none;startFill=0;endArrow=none;endFill=0;strokeColor=default;" edge="1" parent="1" source="8uQz145Xqex9sL9PM3ih-35" target="8uQz145Xqex9sL9PM3ih-5">
          <mxGeometry relative="1" as="geometry" />
        </mxCell>
        <mxCell id="8uQz145Xqex9sL9PM3ih-35" value="&lt;span style=&quot;font-size: 14px;&quot;&gt;结果反馈&lt;/span&gt;" style="rounded=0;whiteSpace=wrap;html=1;fillColor=#517293;fontColor=#ffffff;strokeColor=#006EAF;" vertex="1" parent="1">
          <mxGeometry x="399" y="280" width="100" height="30" as="geometry" />
        </mxCell>
        <mxCell id="8uQz145Xqex9sL9PM3ih-37" value="准确率、&lt;br&gt;图像等" style="html=1;verticalAlign=bottom;startArrow=oval;startFill=0;endArrow=block;startSize=8;rounded=0;strokeColor=default;" edge="1" parent="1">
          <mxGeometry x="1" y="34" width="60" relative="1" as="geometry">
            <mxPoint x="456" y="225" as="sourcePoint" />
            <mxPoint x="456" y="275" as="targetPoint" />
            <mxPoint y="5" as="offset" />
          </mxGeometry>
        </mxCell>
        <mxCell id="8uQz145Xqex9sL9PM3ih-38" value="调整" style="html=1;verticalAlign=bottom;startArrow=oval;startFill=0;endArrow=block;startSize=8;rounded=0;strokeColor=default;" edge="1" parent="1">
          <mxGeometry x="-0.6" y="20" width="60" relative="1" as="geometry">
            <mxPoint x="440" y="270" as="sourcePoint" />
            <mxPoint x="440" y="220" as="targetPoint" />
            <mxPoint as="offset" />
          </mxGeometry>
        </mxCell>
      </root>
    </mxGraphModel>
  </diagram>
</mxfile>
